<svg id="Capa_1" data-name="Capa 1" xmlns="http://www.w3.org/2000/svg" viewBox="0 0 512 512"><defs><style>.cls-1{fill:#fcd305;}.cls-1,.cls-4{fill-rule:evenodd;}.cls-2{fill:#fff;}.cls-3,.cls-4{fill:#ffda00;}</style></defs><title>Mesa de trabajo 1</title><rect width="512" height="512"/><polygon class="cls-1" points="136.05 188.8 136.81 188.85 137.53 188.88 138.17 188.99 138.74 189.14 139.26 189.34 139.49 189.45 139.72 189.57 140.14 189.87 140.48 190.17 140.63 190.36 140.78 190.54 140.89 190.73 141.05 190.97 141.24 191.42 141.42 191.94 141.5 192.21 141.58 192.52 141.65 193.12 141.69 193.43 141.72 193.76 141.72 194.48 141.72 210.72 141.72 211.44 141.69 211.78 141.65 212.12 141.61 212.43 141.58 212.73 141.5 213 141.42 213.3 141.24 213.79 141.05 214.24 140.89 214.47 140.78 214.66 140.63 214.85 140.48 215.03 140.28 215.22 140.14 215.38 139.95 215.49 139.72 215.65 139.49 215.76 139.26 215.87 139 215.98 138.74 216.06 138.17 216.21 137.83 216.29 137.53 216.33 136.81 216.4 136.46 216.4 136.05 216.4 106.11 216.4 106.11 240.28 106.11 264.17 106.11 288.06 106.11 311.98 106.07 312.74 106.03 313.42 105.92 314.06 105.77 314.63 105.58 315.16 105.47 315.39 105.35 315.62 105.05 316.04 104.75 316.37 104.55 316.52 104.37 316.68 104.18 316.82 103.94 316.94 103.5 317.17 102.97 317.32 102.7 317.4 102.4 317.47 101.79 317.59 101.49 317.62 101.15 317.62 100.43 317.66 81.05 317.66 80.33 317.62 79.99 317.62 79.69 317.59 79.34 317.51 79.08 317.47 78.77 317.4 78.51 317.32 77.98 317.17 77.54 316.94 77.3 316.82 77.11 316.68 76.92 316.52 76.74 316.37 76.58 316.22 76.43 316.04 76.28 315.85 76.13 315.62 76.02 315.39 75.91 315.16 75.79 314.89 75.72 314.63 75.56 314.06 75.48 313.76 75.44 313.42 75.37 312.74 75.37 312.36 75.37 311.98 75.37 288.06 75.37 264.17 75.37 240.28 75.37 216.4 45.2 216.4 44.44 216.4 43.77 216.33 43.13 216.21 42.55 216.06 42.03 215.87 41.8 215.76 41.58 215.65 41.15 215.38 40.81 215.03 40.66 214.85 40.51 214.66 40.4 214.47 40.24 214.24 40.02 213.79 39.86 213.3 39.78 213 39.71 212.73 39.6 212.12 39.56 211.78 39.56 211.44 39.52 210.72 39.52 194.48 39.56 193.76 39.56 193.43 39.6 193.12 39.67 192.81 39.71 192.52 39.78 192.21 39.86 191.94 40.02 191.42 40.24 190.97 40.4 190.73 40.51 190.54 40.66 190.36 40.81 190.17 40.96 190.01 41.15 189.87 41.34 189.72 41.58 189.57 41.8 189.45 42.03 189.34 42.29 189.22 42.55 189.14 43.13 188.99 43.43 188.96 43.77 188.88 44.44 188.85 44.83 188.8 45.2 188.8 67.91 188.8 90.63 188.8 113.34 188.8 136.05 188.8"/><polygon class="cls-2" points="338.81 276.61 353.77 251.68 338.81 226.79 329.01 211.02 319.22 195.28 318.29 193.77 317.44 192.6 316.72 191.74 316.02 191.14 315.73 190.94 315.48 190.8 314.66 190.5 314.25 190.41 313.79 190.34 312.56 190.28 289.54 190.28 289.03 190.31 288.48 190.51 288.16 190.74 288.06 190.84 287.76 191.25 287.56 191.6 287.48 191.94 287.42 192.39 287.44 192.63 287.51 192.91 287.83 193.67 305.48 222.23 323.7 251.66 305.81 282.35 288.36 312.37 288.09 312.81 287.94 313.15 287.86 313.62 287.81 314.13 287.85 314.56 287.96 314.99 288.1 315.31 288.36 315.66 288.66 315.96 288.87 316.09 289.16 316.2 289.55 316.22 311.82 316.22 313.36 316.19 314.63 316.02 315.6 315.77 316.31 315.46 316.54 315.29 316.83 315.02 317.55 314.2 318.35 313.02 318.76 312.35 319.18 311.5 328.98 294.05 338.81 276.61"/><path class="cls-3" d="M393.79,191.49l-.19-.6-.3-.57-.42-.49-.53-.46-.6-.3-.69-.19-.72,0H367.4l-1.28.07-.6.07-.54.12-1,.38-.46.23-.37.29-.83.72-.46.46-.45.53-.94,1.25-1.07,1.55-9.69,15.75-8.83,14.39-9.41-15.15-9.8-15.73-.94-1.56-1-1.34-1-1.16-.91-.79-.51-.38-.58-.32-1.31-.5-.67-.14-.66-.1-1.45-.08H289.51l-1.05.05-.85.3-.56.24-.74.53-.43.43-.49.65-.52.94-.2.79-.13,1,0,.63.18.82.5,1.2,17.78,28.76,17.3,27.95-17,29.2-17.4,30-.38.6-.39.88-.14.85-.1,1,.09.84.22.95.39.84.55.76.62.63.36.25.5.3.92.33.86,0h22.43l1.64,0,1.58-.2,1.47-.37,1.18-.53.54-.38.55-.48,1-1.07,1-1.44.5-.81.45-.9,9.78-17.42,9.36-16.61,8.85,15.91,9.69,17.45,1,1.66.86,1.33.88,1,.41.34.38.27.91.38,1.17.3,1.4.15,1.63,0h22.33l.64,0,.61-.22.27-.15.27-.2.45-.45L393,316l.3-.58.15-.65,0-.67,0-.72-.15-.68-.12-.31-.11-.3-.34-.53-17.33-30L358,251.68,375.62,223l17.64-28.66.27-.53.18-.53.11-.53.05-.56ZM329,294.05l-9.8,17.45-.42.85-.41.67-.8,1.18-.71.82-.3.27-.23.17-.71.31-1,.25-1.27.17-1.54,0H289.55l-.39,0-.29-.11-.21-.13-.3-.3-.26-.35L288,315l-.11-.43,0-.43.05-.52.08-.46.15-.34.27-.44,17.45-30,17.89-30.69-18.22-29.42-17.65-28.56-.32-.76-.07-.28,0-.24.06-.45.08-.33.2-.36.3-.41.1-.1.32-.23.55-.2.51,0h23l1.24.06.46.07.41.08.82.31.25.14.29.2.7.6.72.86.85,1.17.93,1.51L329,211l9.8,15.77,15,24.89-15,24.93Z"/><polygon class="cls-4" points="468.32 290.86 469.8 290.93 471.01 291.2 471.99 291.62 472.75 292.22 473.05 292.59 473.28 293.02 473.51 293.47 473.7 294 473.84 294.53 473.92 295.17 474 296.53 474 311.98 473.92 313.38 473.84 313.99 473.7 314.56 473.51 315.05 473.28 315.54 473.05 315.96 472.75 316.3 471.99 316.9 471.54 317.13 471.01 317.32 469.8 317.59 469.07 317.66 468.32 317.66 440.61 317.66 412.9 317.66 411.47 317.59 410.25 317.32 409.27 316.9 408.51 316.3 408.21 315.96 407.94 315.54 407.72 315.05 407.57 314.56 407.41 313.99 407.3 313.38 407.22 311.98 407.22 296.53 407.3 295.17 407.41 294.53 407.57 294 407.72 293.47 407.94 293.02 408.21 292.59 408.51 292.22 409.27 291.62 409.73 291.39 410.25 291.2 411.47 290.93 412.15 290.86 412.9 290.86 425.25 290.86 425.25 272.16 425.25 253.46 425.25 234.76 425.25 216.06 413.32 216.06 411.85 215.95 410.63 215.72 409.65 215.27 408.9 214.66 408.58 214.31 408.37 213.9 408.13 213.45 407.94 212.92 407.8 212.35 407.72 211.74 407.64 210.38 407.64 194.52 407.72 193.12 407.8 192.52 407.94 191.94 408.13 191.46 408.37 191 408.58 190.59 408.9 190.21 409.65 189.6 410.1 189.37 410.63 189.18 411.85 188.91 412.57 188.85 413.32 188.85 440.53 188.85 467.75 188.85 469.19 188.91 470.41 189.18 471.39 189.6 472.14 190.21 472.44 190.59 472.71 191 472.94 191.46 473.09 191.94 473.24 192.52 473.36 193.12 473.43 194.52 473.43 210.38 473.36 211.74 473.24 212.35 473.09 212.92 472.94 213.45 472.71 213.9 472.44 214.31 472.14 214.66 471.39 215.27 470.94 215.52 470.41 215.72 469.19 215.95 468.51 216.02 467.75 216.06 455.98 216.06 455.98 234.76 455.98 253.46 455.98 272.16 455.98 290.86 468.32 290.86"/><polygon class="cls-2" points="271.07 303.09 270.96 302.73 270.9 302.47 270.63 301.76 270.34 301.26 269.94 300.81 269.66 300.57 269.05 300.23 268.59 300.06 267.98 299.91 267.7 299.85 267.42 299.82 266.16 299.71 265.77 299.71 247.75 299.68 229.78 299.68 211.79 299.63 192.38 299.63 192.38 268.07 252.83 268.07 253.54 268.01 254.49 267.82 255.54 267.45 255.66 267.38 256.13 267.04 256.41 266.72 256.49 266.61 256.56 266.54 256.73 266.24 256.95 265.77 257.13 265.3 257.31 264.44 257.36 264.03 257.41 263.78 257.42 263.34 257.45 263 257.45 243.7 257.34 242.58 257.18 241.6 257.13 241.36 256.86 240.66 256.76 240.47 256.52 240.09 256.18 239.69 255.85 239.42 255.27 239.1 255.08 239.03 254.79 238.94 254.26 238.78 253.89 238.74 253.53 238.68 252.4 238.58 192.38 238.58 192.38 207.05 266.08 207.05 267.25 206.95 267.69 206.88 267.92 206.85 268.25 206.75 268.52 206.69 268.99 206.53 269.58 206.2 269.97 205.86 270.18 205.56 270.29 205.46 270.44 205.21 270.66 204.75 270.82 204.28 271.01 203.41 271.15 201.96 271.15 181.44 271.04 180.34 270.95 179.68 270.82 179.13 270.65 178.64 270.47 178.24 270.32 178.02 270.22 177.84 269.98 177.56 269.87 177.45 269.57 177.19 268.98 176.88 268.48 176.69 267.98 176.56 267.59 176.51 267.23 176.45 266.1 176.35 162.67 176.35 161.54 176.45 161.08 176.53 160.86 176.55 160.48 176.66 160.25 176.71 159.83 176.87 159.58 177 159.37 177.1 159.08 177.3 158.68 177.71 158.31 178.23 158.06 178.81 157.97 179.18 157.88 179.45 157.75 180.01 157.62 181.44 157.62 325.02 157.65 325.38 157.72 326.11 157.82 326.78 157.88 327.01 158.11 327.77 158.26 328.08 158.34 328.26 158.42 328.39 158.66 328.73 159.02 329.11 159.22 329.21 159.44 329.39 159.77 329.54 160 329.64 160.27 329.72 160.91 329.89 161.54 330.02 162.23 330.07 188.78 330.07 214.45 330.12 240.11 330.12 266.17 330.15 266.68 330.12 267 330.12 267.42 330.05 267.72 330.02 268.32 329.9 268.54 329.82 269.06 329.62 269.26 329.53 269.65 329.31 269.94 329.06 270.04 328.96 270.31 328.65 270.52 328.32 270.82 327.62 270.9 327.37 271.05 326.81 271.1 326.45 271.17 326.15 271.23 325.51 271.23 304.37 271.16 303.68 271.07 303.09"/><path class="cls-3" d="M274,303.36l-.12-.81-.14-.51-.07-.3-.43-1.18-.37-.65-.19-.3-.47-.58-.27-.28-.68-.57-1-.54-.77-.29-.85-.23-.45-.1-1.4-.13-.52-.05-18.55,0h-18l-18-.05H195.25V271H252.9l1-.09.55-.09.78-.17,1.13-.38.37-.14.42-.22.62-.42.42-.34.49-.54.06-.1.15-.15.42-.73.3-.64.31-.8.25-1.18.06-.47.09-.45v-.48l0-.33V243.62l-.12-1.34-.13-.86-.16-.77-.17-.5-.25-.64-.2-.4-.41-.67-.43-.54-.3-.3-.63-.54-1-.55-.46-.18-1.27-.38-.45,0-.34-.06-1-.1-.54,0H195.25V209.93h70.9l1.4-.12.52-.09.48-.05.4-.14.28-.06.89-.3,1.08-.59.57-.47.27-.26.29-.35.19-.21.24-.35.2-.35.32-.68.16-.39.13-.41.27-1.21.17-1.77V181.38L273.9,180l-.12-.82-.18-.79-.14-.47-.14-.36-.36-.79-.19-.27-.17-.31-.48-.57-.26-.28-.65-.54-.37-.21-.63-.34-.83-.31-.89-.26-.44,0-.35-.07-1-.09-.48,0H162.62l-1.39.11-.48.09-.45,0-.47.15-.25,0-1,.33-.33.19-.34.17-.72.49-.23.23-.27.23-.26.3-.66.95-.31.68-.16.41-.11.45-.09.28-.2.88-.17,1.76V325.08l.13,1.35.11.83.1.45.13.42.07.26.14.43.22.43.08.21.24.43.48.69.83.85.34.18.25.2.43.22.68.29.45.14.78.22.83.16,1.07.1h26.66l25.68.05H240.1l25.67,0h.51l.46,0h.54l.47-.09.3,0,.92-.17.51-.16.66-.25.41-.2.73-.42.57-.46.28-.28.24-.27.15-.17.31-.44.2-.34.33-.71.15-.36.38-1.28,0-.4.06-.3.1-1V304.3Zm-2.78,22.15-.06.64-.07.3-.05.36-.15.56-.08.25-.3.7-.21.33L270,329l-.1.1-.29.25-.39.22-.2.09-.52.2-.22.08-.6.12-.3,0-.42.07h-.32l-.51,0-26.06,0H214.45l-25.67-.05H162.23l-.69-.05-.64-.13-.63-.17-.27-.08-.23-.1-.33-.15-.22-.18-.2-.1-.36-.38-.24-.34-.08-.13-.08-.18-.15-.31-.23-.76-.06-.23-.1-.67-.07-.72,0-.37V181.44l.13-1.43.13-.56.09-.27.09-.37.25-.58.37-.52.4-.41.29-.19.21-.11.25-.13.42-.16.23-.05.38-.11.22,0,.46-.08,1.13-.1H266.1l1.13.1.36.06.39.05.5.13.5.19.59.31.3.26.11.11.24.28.1.18.15.22.18.4.17.49.13.55.09.67.11,1.09V202l-.14,1.46-.19.87-.16.47-.22.46-.15.25-.11.1-.21.3-.39.34-.59.33-.47.16-.27.06-.33.1-.23,0-.44.07-1.17.1h-73.7v31.53h60l1.13.1.36.06.37,0,.54.16.28.09.19.07.59.32.32.27.34.4.24.38.1.19.26.7.06.24.16,1,.11,1.12V263l0,.34v.44l-.06.25,0,.41-.18.86-.18.47-.22.47-.17.3-.07.07-.08.11-.28.32-.47.34-.12.07-1,.37-1,.19-.71.07H192.38v31.55h19.41l18,.05h18l18,0h.39l1.26.11.28,0,.28.06.61.15.46.17.61.34.28.24.4.45.29.5.27.71.06.26.11.36.09.59.07.68Z"/><path class="cls-2" d="M383.91,374.51c0,.69-.46,1-1.38,1h-7.25a2.84,2.84,0,0,1-1.69-.39,3.26,3.26,0,0,1-.93-1.56l-1.93-5.14H353.81l-1.93,5.14a3.42,3.42,0,0,1-.93,1.56,2.86,2.86,0,0,1-1.69.39H342c-.92,0-1.38-.35-1.38-1a1.63,1.63,0,0,1,.21-.78l15.32-38.94a3.39,3.39,0,0,1,1.07-1.52,2.85,2.85,0,0,1,1.76-.49h6.63a2.69,2.69,0,0,1,1.72.49,4.08,4.08,0,0,1,1.11,1.52l15.25,38.94A1.63,1.63,0,0,1,383.91,374.51ZM362.3,345l-5.17,14.36h10.35Z"/><path class="cls-2" d="M423.7,336.87a13.86,13.86,0,0,1,4.7,11,13.71,13.71,0,0,1-4.73,10.95q-4.73,4.06-13.43,4.06h-6.62v10.79a1.84,1.84,0,0,1-.49,1.46,2.2,2.2,0,0,1-1.51.43h-6.84a2.23,2.23,0,0,1-1.52-.43,1.87,1.87,0,0,1-.48-1.46v-39a2,2,0,0,1,.45-1.43,2.14,2.14,0,0,1,1.55-.45h15.53Q419,332.78,423.7,336.87ZM416,352.38a5.52,5.52,0,0,0,2-4.33,5.6,5.6,0,0,0-1.94-4.42c-1.29-1.12-3.22-1.69-5.8-1.69h-6.62V354.1h6.62A8.57,8.57,0,0,0,416,352.38Z"/><path class="cls-2" d="M469,336.87a13.86,13.86,0,0,1,4.7,11A13.71,13.71,0,0,1,469,358.81q-4.72,4.06-13.43,4.06H449v10.79a1.87,1.87,0,0,1-.49,1.46,2.23,2.23,0,0,1-1.52.43h-6.83a2.23,2.23,0,0,1-1.52-.43,1.87,1.87,0,0,1-.48-1.46v-39a2,2,0,0,1,.45-1.43,2.14,2.14,0,0,1,1.55-.45h15.53Q464.35,332.78,469,336.87Zm-7.69,15.51a5.51,5.51,0,0,0,2-4.33,5.59,5.59,0,0,0-1.93-4.42c-1.29-1.12-3.22-1.69-5.8-1.69H449V354.1h6.62A8.59,8.59,0,0,0,461.35,352.38Z"/></svg>